<svg width="26" height="25" viewBox="0 0 26 25" fill="none" xmlns="http://www.w3.org/2000/svg">
<path d="M4.91841 23.0368L5.81284 22.5896L5.81284 22.5896L4.91841 23.0368ZM21.0817 23.0368L21.9761 23.484L21.9761 23.484L21.0817 23.0368ZM2.12516 9.80005H23.8749V7.80005H2.12516V9.80005ZM23.2 9.12516V9.82718H25.2V9.12516H23.2ZM20.8175 22.2H5.1826V24.2H20.8175V22.2ZM2.80005 9.82718V9.12516H0.800049V9.82718H2.80005ZM5.81284 22.5896C3.83154 18.627 2.80005 14.2575 2.80005 9.82718H0.800049C0.800049 14.568 1.90383 19.2437 4.02398 23.484L5.81284 22.5896ZM5.1826 22.2C5.44949 22.2 5.69348 22.3508 5.81284 22.5896L4.02398 23.484C4.24341 23.9228 4.69195 24.2 5.1826 24.2V22.2ZM20.1873 22.5896C20.3066 22.3508 20.5506 22.2 20.8175 22.2V24.2C21.3081 24.2 21.7567 23.9228 21.9761 23.484L20.1873 22.5896ZM23.2 9.82718C23.2 14.2575 22.1686 18.627 20.1873 22.5896L21.9761 23.484C24.0963 19.2437 25.2 14.568 25.2 9.82718H23.2ZM23.8749 9.80005C23.5022 9.80005 23.2 9.49789 23.2 9.12516H25.2C25.2 8.39332 24.6068 7.80005 23.8749 7.80005V9.80005ZM2.12516 7.80005C1.39332 7.80005 0.800049 8.39332 0.800049 9.12516H2.80005C2.80005 9.49789 2.49789 9.80005 2.12516 9.80005V7.80005ZM7.45754 9.31454L12.2575 1.31454L10.5426 0.285553L5.74256 8.28555L7.45754 9.31454ZM13.7426 1.31454L18.5426 9.31454L20.2575 8.28555L15.4575 0.285553L13.7426 1.31454ZM12 11.2V19.2H14V11.2H12ZM9.00005 16.2H17V14.2H9.00005V16.2Z" fill="white"/>
</svg>
