<svg width="118" height="100" viewBox="0 0 118 100" fill="none" xmlns="http://www.w3.org/2000/svg">
<path d="M27.934 67.9043H31.115H85.3517C86.6623 67.9043 87.817 67.0434 88.1912 65.7873L99.8765 26.5513C100.144 25.6549 99.9713 24.6849 99.4123 23.9349C98.8531 23.1849 97.9726 22.7431 97.0373 22.7431H21.6385L17.6518 9.35642C17.2777 8.10056 16.1228 7.23962 14.8123 7.23962H2.96269C1.32656 7.23943 0 8.5658 0 10.2021C0 11.8383 1.32656 13.1648 2.96269 13.1648H12.6035L16.5713 26.4873C16.5834 26.5312 16.5961 26.5748 16.6102 26.6178L27.1504 62.0088C21.134 62.4135 16.3619 67.4342 16.3619 73.5514C16.3619 79.9322 21.5531 85.1234 27.9338 85.1234H30.875C32.1603 89.5303 36.2338 92.7605 41.0502 92.7605C45.8664 92.7605 49.94 89.5305 51.2254 85.1234H66.9445C68.2299 89.5303 72.3033 92.7605 77.1197 92.7605C81.9359 92.7605 86.0096 89.5305 87.2949 85.1234H91.1119C92.748 85.1234 94.0746 83.7969 94.0746 82.1607C94.0746 80.5246 92.748 79.198 91.1119 79.198H87.2949C86.0096 74.791 81.9361 71.5609 77.1197 71.5609C72.3033 71.5609 68.2297 74.791 66.9445 79.198H51.2254C49.94 74.791 45.8666 71.5609 41.0502 71.5609C36.2338 71.5609 32.1601 74.791 30.875 79.198H27.9338C24.8201 79.198 22.2871 76.6648 22.2871 73.5512C22.2871 70.4375 24.8203 67.9043 27.934 67.9043ZM71.3957 28.6681H93.0638L88.9857 42.3609H71.3957V28.6681ZM71.3955 48.2863H87.2209L83.1429 61.9791H71.3955V48.2863ZM49.4734 28.6681H65.4705V42.3609H49.4734V28.6681ZM49.4732 48.2863H65.4703V61.9791H49.4732V48.2863ZM43.5484 61.9791H33.324L29.2461 48.2863H43.5484V61.9791ZM23.4035 28.6681H43.5482V42.3609H27.4814L23.4035 28.6681ZM77.1199 77.4861C79.6974 77.4861 81.7943 79.583 81.7943 82.1605C81.7943 84.7381 79.6974 86.835 77.1199 86.835C74.5424 86.835 72.4455 84.7381 72.4455 82.1605C72.4455 79.583 74.5424 77.4861 77.1199 77.4861ZM41.0504 77.4861C43.6279 77.4861 45.7248 79.583 45.7248 82.1605C45.7248 84.7381 43.6279 86.835 41.0504 86.835C38.4728 86.835 36.376 84.7381 36.376 82.1605C36.376 79.583 38.4728 77.4861 41.0504 77.4861Z" fill="white"/>
</svg>
