<svg xmlns="http://www.w3.org/2000/svg" width="30" height="30" fill="none" viewBox="0 0 30 30"><path fill="#fff" d="M30 9.23654C30 7.87957 28.896 6.77561 27.5391 6.77561H23.8397L17.6133 0.549199C17.2592 0.195059 16.7883 0 16.2875 0C15.8043 0 15.3494 0.181934 15 0.512637C14.6505 0.181934 14.1957 0 13.7125 0C13.2117 0 12.7408 0.195059 12.3867 0.549199L6.16031 6.77561H2.46094C1.10396 6.77561 0 7.87957 0 9.23654C0 10.4223 0.843047 11.4148 1.96125 11.6464L4.05539 23.3737C4.20533 24.2132 4.93307 24.8225 5.78584 24.8225H9.4749C9.66082 27.7086 12.0677 30 15 30C17.9323 30 20.3392 27.7086 20.5251 24.8225H24.229C25.0818 24.8225 25.8095 24.2132 25.9594 23.3737L28.0542 11.6428C29.1647 11.4053 30 10.4168 30 9.23654ZM15.7903 1.37783C15.9231 1.245 16.0996 1.17188 16.2875 1.17188C16.4753 1.17188 16.6519 1.245 16.7846 1.37783L24.1462 8.73937C24.2791 8.87215 24.3522 9.04875 24.3522 9.23654C24.3522 9.42434 24.2791 9.60094 24.1462 9.73371C24.0135 9.86654 23.8369 9.93967 23.6491 9.93967C23.4613 9.93967 23.2847 9.86654 23.1519 9.73371L15.7903 2.37217C15.6574 2.23934 15.5843 2.06279 15.5843 1.875C15.5843 1.68721 15.6575 1.51066 15.7903 1.37783ZM15 3.23918L18.5364 6.77561H11.4636L15 3.23918ZM10.2917 7.94748H19.7083L22.2864 10.5256H7.71357L10.2917 7.94748ZM13.2154 1.37783C13.3481 1.245 13.5247 1.17188 13.7125 1.17188C13.9004 1.17188 14.0769 1.245 14.2097 1.37783C14.3425 1.51066 14.4156 1.68721 14.4156 1.875C14.4156 2.06279 14.3425 2.23934 14.2097 2.37217L6.84814 9.73371C6.71537 9.86654 6.53877 9.93967 6.35098 9.93967C6.16313 9.93967 5.98658 9.86654 5.85381 9.73371C5.72098 9.60094 5.64785 9.42434 5.64785 9.23654C5.64785 9.04875 5.72098 8.87215 5.85381 8.73937L13.2154 1.37783ZM1.17188 9.23654C1.17188 8.52574 1.75014 7.94748 2.46094 7.94748H4.9902C4.6585 8.29717 4.47604 8.75273 4.47604 9.23654C4.47604 9.72041 4.65855 10.1759 4.9902 10.5256H2.46094C1.75014 10.5256 1.17188 9.94734 1.17188 9.23654ZM15 28.8281C12.593 28.8281 10.6348 26.8699 10.6348 24.4629C10.6348 22.0559 12.593 20.0977 15 20.0977C17.407 20.0977 19.3652 22.0559 19.3652 24.4629C19.3652 26.8699 17.407 28.8281 15 28.8281ZM24.8058 23.1677C24.7559 23.4475 24.5133 23.6506 24.229 23.6506H20.4774C20.1373 21.3476 18.3744 19.5016 16.1133 19.0383V15.0373C16.1133 14.4225 15.6148 13.924 15 13.924C14.3852 13.924 13.8867 14.4225 13.8867 15.0373V19.0383C11.6256 19.5016 9.86268 21.3476 9.5226 23.6506H5.78584C5.50154 23.6506 5.25897 23.4475 5.20898 23.1677L3.16078 11.6975H26.8541L24.8058 23.1677ZM27.5391 10.5256H25.0098C25.3415 10.1759 25.524 9.72035 25.524 9.23654C25.524 8.75273 25.3414 8.29717 25.0098 7.94748H27.5391C28.2499 7.94748 28.8281 8.52574 28.8281 9.23654C28.8281 9.94734 28.2499 10.5256 27.5391 10.5256Z"/><path fill="#fff" d="M20 14C19.4477 14 19 14.4693 19 15.0481V19.9519C19 20.5307 19.4477 21 20 21C20.5523 21 21 20.5307 21 19.9519V15.0481C21 14.4693 20.5523 14 20 14Z"/><path fill="#fff" d="M10 14C9.44774 14 9 14.4693 9 15.0481V19.9519C9 20.5307 9.44774 21 10 21C10.5523 21 11 20.5307 11 19.9519V15.0481C11 14.4693 10.5523 14 10 14Z"/><path fill="#fff" d="M17.0455 23.7045H15.9545V22.7955C15.9545 22.3561 15.5272 22 15 22C14.4728 22 14.0455 22.3561 14.0455 22.7955V23.7045H12.9545C12.4274 23.7045 12 24.0607 12 24.5C12 24.9393 12.4274 25.2955 12.9545 25.2955H14.0455V26.2045C14.0455 26.6439 14.4728 27 15 27C15.5272 27 15.9545 26.6439 15.9545 26.2045V25.2955H17.0455C17.5726 25.2955 18 24.9393 18 24.5C18 24.0607 17.5726 23.7045 17.0455 23.7045Z"/></svg>