<svg width="303" height="333" viewBox="0 0 303 333" fill="none" xmlns="http://www.w3.org/2000/svg">
<circle cx="166.5" cy="187.36" r="136.5" fill="#F9ECE9"/>
<g clip-path="url(#clip0)">
<path d="M224.197 53.1951C222.34 52.429 221.943 50.2541 222.743 48.2635C224.293 44.5868 228.203 45.2474 228.985 47.8923C229.846 50.7371 227.11 54.4128 224.197 53.1951ZM230.465 41.5021C230.124 42.1575 229.595 42.3006 228.838 41.9817C228.013 41.6463 227.62 41.4306 227.835 40.5338C229.032 35.0239 229.923 31.5491 230.512 30.1552C236.248 16.6462 236.502 15.2615 236.96 15.4479C237.694 15.746 238.653 16.4604 239.41 16.7793C240.167 17.0983 241.387 17.3034 242.121 17.6015C242.511 17.7714 242.026 18.6481 240.874 21.5025C236.635 31.9395 233.393 36.5169 230.465 41.5021Z" fill="#FA7167"/>
</g>
<g clip-path="url(#clip1)">
<mask id="mask0" style="mask-type:alpha" maskUnits="userSpaceOnUse" x="30" y="65" width="273" height="274">
<circle cx="166.5" cy="201.837" r="136.5" fill="#E8F7EB"/>
</mask>
<g mask="url(#mask0)">
<path d="M139 182.326C139 182.326 162.826 301.073 162.442 301.686C162.442 301.686 169.039 304.088 176.212 301.993C176.212 301.993 174.035 238.532 169.039 214.21C169.039 214.21 209.646 270.927 222.584 299.183C222.584 299.183 229.309 298.518 234.881 295.606C234.881 295.606 191.136 193.516 179.479 179.874L139 182.326Z" fill="url(#paint0_linear)"/>
</g>
<path d="M133.427 94.0967C131.698 94.1989 130.032 94.4544 128.431 94.8632C111.01 99.6662 97.3035 98.491 86.7354 94.6588C84.3015 97.2647 80.3305 102.63 78.6653 111.674C97.8158 123.068 121.962 120.053 129.84 118.674C127.791 130.886 127.791 150.2 136.245 178.558C136.437 179.325 137.27 179.836 138.231 179.887C143.611 180.244 161.672 181.062 178.966 177.996C179.734 177.843 180.183 177.179 179.862 176.617L179.734 176.31C178.261 173.602 177.621 170.638 177.877 167.726C178.517 158.784 181.528 138.652 187.933 124.805C188.317 125.316 188.637 125.827 189.021 126.287C190.174 117.192 194.53 108.25 197.604 99.2574C172.433 92.9215 142.586 93.688 133.427 94.0967Z" fill="url(#paint1_linear)"/>
<path d="M172.625 77.5928C172.625 77.5928 174.354 92.4106 175.891 96.7537C176.148 97.418 175.763 98.1333 174.995 98.4399C172.369 99.6151 166.092 101.608 157.509 98.2355C156.1 97.6734 155.268 96.5493 155.332 95.323L156.1 81.0162L172.625 77.5928Z" fill="url(#paint2_linear)"/>
<path d="M155.716 58.6873C155.716 58.6873 150.08 68.9576 149.759 74.3737C149.375 79.7899 147.902 83.2644 155.716 84.3374C163.53 85.4104 170.127 82.2936 173.714 76.9285C173.714 76.9285 179.286 68.651 178.069 65.2787C176.788 61.8553 155.716 58.6873 155.716 58.6873Z" fill="url(#paint3_linear)"/>
<path d="M171.024 73.0964L170.575 72.9431C169.999 72.7387 169.743 72.2277 170.063 71.7679C171.152 70.0817 173.329 66.1984 170.511 65.2787C167.885 64.4101 165.067 63.9502 162.377 63.2349C159.879 62.6217 155.011 61.9064 153.73 59.8114C153.346 59.1983 153.795 58.4829 154.179 57.8698C154.947 56.7457 155.716 55.6216 156.485 54.5486C157.125 53.6288 157.766 52.658 158.79 51.9427C161.16 50.3587 163.914 51.7383 166.54 52.1471C176.212 53.5777 182.552 56.6946 182.745 62.0086C182.745 62.3662 183.193 62.5195 183.577 62.3662C184.282 62.0086 185.435 61.8553 186.972 62.8772C189.598 64.6655 188.509 69.2642 182.745 73.0453C182.488 73.2496 182.488 73.5562 182.745 73.7095C183.769 74.2716 185.371 75.549 181.271 77.2862C177.044 79.0746 173.906 78.9213 172.689 78.768C172.369 78.7169 172.177 78.5125 172.241 78.257L173.522 73.6073C173.586 73.3518 173.329 73.0964 173.009 73.0964H171.024Z" fill="url(#paint4_linear)"/>
<path d="M170.767 74.0672C170.767 74.0672 172.881 67.4758 176.596 69.3664C180.311 71.2058 174.674 76.7242 171.728 76.9797L170.767 74.0672Z" fill="url(#paint5_linear)"/>
<path d="M173.522 66.1984L149.567 68.7021C148.991 68.7532 148.35 68.5488 147.966 68.1911C145.212 65.3809 141.689 63.848 137.59 63.2859C137.078 63.2349 137.078 62.6217 137.59 62.5195L152.001 59.8114H152.065C159.431 59.3005 166.604 61.9575 173.65 65.7385C173.906 65.8918 173.778 66.1473 173.522 66.1984Z" fill="url(#paint6_linear)"/>
<path d="M178.709 175.748C184.218 175.85 188.701 172.324 188.701 167.93V133.134C188.701 128.586 184.09 124.856 178.389 124.805C161.16 124.652 125.741 124.652 96.663 126.594C92.6919 126.849 89.6176 129.455 89.4895 132.623L86.7995 166.295C86.6073 170.74 91.0267 174.47 96.5989 174.573L178.709 175.748Z" fill="url(#paint7_linear)"/>
<path d="M178.774 136.915C178.838 139.879 178.709 144.579 178.645 147.594C178.581 149.178 176.852 150.353 174.867 150.2L160.712 148.871C158.854 148.718 157.509 147.288 157.766 145.806L159.495 136.557C159.751 135.229 161.16 134.258 162.825 134.258H175.379C177.236 134.309 178.709 135.433 178.774 136.915Z" fill="white"/>
<path opacity="0.37" d="M141.753 154.44L129.968 155.462C128.303 155.615 126.894 154.542 127.022 153.214L129.584 125.213C134.516 125.111 139.448 125.009 144.123 124.958V152.396C144.123 153.418 143.098 154.338 141.753 154.44Z" fill="white"/>
<path d="M136.886 149.587C136.822 150.098 136.309 150.456 135.733 150.456H135.669C135.028 150.405 134.516 149.996 134.58 149.434L136.373 124.959C137.142 124.959 137.974 124.908 138.743 124.908L136.886 149.587Z" fill="white"/>
<path d="M172.176 145.755C172.369 145.755 172.561 145.601 172.561 145.448L173.201 137.733C173.201 137.579 173.073 137.426 172.817 137.375C172.561 137.375 172.433 137.477 172.369 137.682L171.728 145.397C171.792 145.55 171.984 145.704 172.176 145.755Z" fill="url(#paint8_linear)"/>
<path d="M170.96 145.754C171.152 145.754 171.344 145.601 171.344 145.447L171.664 137.579C171.664 137.425 171.472 137.272 171.28 137.272C171.024 137.272 170.896 137.425 170.896 137.579L170.511 145.396C170.511 145.601 170.703 145.703 170.96 145.754C170.96 145.754 170.896 145.754 170.96 145.754Z" fill="url(#paint9_linear)"/>
<path d="M169.23 145.754C169.038 145.754 168.846 145.6 168.846 145.447C168.974 142.79 169.294 137.783 169.294 137.63C169.294 137.476 169.486 137.323 169.679 137.323C169.871 137.323 170.063 137.476 170.063 137.63C170.063 137.783 169.679 144.221 169.615 145.498C169.615 145.6 169.486 145.754 169.23 145.754Z" fill="url(#paint10_linear)"/>
<path d="M166.604 146.062C167.053 146.062 167.373 145.807 167.373 145.449C167.693 137.836 167.629 137.682 167.629 137.58C167.501 137.223 167.053 137.069 166.668 137.12C166.284 137.223 166.028 137.529 166.092 137.836C166.092 138.296 165.964 142.741 165.836 145.449C165.772 145.756 166.156 146.062 166.604 146.062Z" fill="url(#paint11_linear)"/>
<path d="M164.875 145.755C165.067 145.755 165.259 145.601 165.259 145.448V137.733C165.259 137.579 165.067 137.426 164.875 137.426C164.683 137.426 164.491 137.579 164.491 137.733V145.397C164.491 145.601 164.683 145.755 164.875 145.755Z" fill="url(#paint12_linear)"/>
<path d="M163.53 145.755C163.722 145.755 163.914 145.601 163.914 145.448C163.978 142.791 164.17 138.397 164.299 137.886C164.363 137.784 164.363 137.681 164.299 137.579C164.17 137.426 163.914 137.375 163.722 137.477C163.53 137.579 163.274 137.681 163.082 145.448C163.082 145.601 163.274 145.704 163.53 145.755Z" fill="url(#paint13_linear)"/>
<path d="M174.354 146.419C174.803 146.419 175.123 146.163 175.123 145.806L175.635 137.733C175.635 137.375 175.315 137.068 174.867 137.068C174.482 137.068 174.034 137.324 174.034 137.681L173.522 145.755C173.522 146.112 173.842 146.419 174.354 146.419C174.29 146.419 174.29 146.419 174.354 146.419Z" fill="url(#paint14_linear)"/>
<path d="M149.503 126.083C153.602 126.134 156.997 123.528 156.997 120.207V94.1478C156.997 90.7244 153.538 87.9141 149.247 87.9141C136.373 87.8119 109.793 87.8119 88.0804 89.2426C85.1342 89.447 82.8284 91.3887 82.7003 93.7391L80.6508 118.929C80.5227 122.251 83.7892 125.061 87.9523 125.112L149.503 126.083Z" fill="url(#paint15_linear)"/>
<path d="M149.503 97.0092C149.567 99.2063 149.503 102.732 149.439 105.031C149.375 106.206 148.094 107.126 146.621 106.973L136.053 106.002C134.644 105.849 133.619 104.827 133.875 103.703L135.156 96.8048C135.348 95.834 136.373 95.1186 137.654 95.1186H147.069C148.35 95.0165 149.503 95.8851 149.503 97.0092Z" fill="white"/>
<path opacity="0.37" d="M121.834 110.141L112.995 110.908C111.778 111.01 110.69 110.192 110.818 109.222L112.739 88.2212C116.454 88.119 120.105 88.0679 123.628 88.0168V108.557C123.628 109.375 122.859 110.039 121.834 110.141Z" fill="white"/>
<path d="M118.183 106.462C118.183 106.82 117.735 107.127 117.287 107.127H117.223C116.71 107.127 116.326 106.769 116.39 106.36L117.735 88.0679C118.311 88.0679 118.952 88.0679 119.528 88.0168L118.183 106.462Z" fill="white"/>
<path d="M144.636 103.601C144.764 103.601 144.892 103.498 144.956 103.396L145.404 97.6224C145.404 97.4691 145.276 97.3669 145.148 97.3669C144.956 97.3669 144.828 97.4691 144.828 97.5713L144.379 103.345C144.315 103.498 144.443 103.601 144.636 103.601Z" fill="url(#paint16_linear)"/>
<path d="M143.675 103.6C143.803 103.6 143.995 103.498 143.995 103.395L144.251 97.5195C144.251 97.3662 144.123 97.264 143.995 97.264C143.803 97.264 143.675 97.3662 143.675 97.4684L143.419 103.344C143.355 103.498 143.483 103.6 143.675 103.6Z" fill="url(#paint17_linear)"/>
<path d="M142.394 103.601C142.202 103.601 142.074 103.499 142.138 103.346C142.266 101.353 142.458 97.6229 142.458 97.4696C142.458 97.3163 142.586 97.2141 142.778 97.2141C142.97 97.2141 143.098 97.3163 143.098 97.4696C143.098 97.5718 142.778 102.375 142.778 103.346C142.714 103.499 142.586 103.601 142.394 103.601Z" fill="url(#paint18_linear)"/>
<path d="M140.472 103.856C140.793 103.856 141.049 103.651 141.049 103.396C141.305 97.7243 141.241 97.571 141.241 97.4688C141.177 97.2134 140.857 97.0601 140.536 97.1623C140.216 97.2134 140.088 97.4688 140.088 97.6732C140.088 98.0309 139.96 101.352 139.896 103.345C139.832 103.6 140.088 103.856 140.472 103.856C140.408 103.856 140.408 103.856 140.472 103.856Z" fill="url(#paint19_linear)"/>
<path d="M139.127 103.601C139.319 103.601 139.448 103.498 139.448 103.345V97.6224C139.448 97.4691 139.319 97.3669 139.127 97.3669C138.935 97.3669 138.807 97.4691 138.807 97.6224V103.396C138.871 103.498 138.999 103.601 139.127 103.601Z" fill="url(#paint20_linear)"/>
<path d="M138.103 103.6C138.295 103.6 138.423 103.498 138.423 103.344C138.487 101.352 138.615 98.0814 138.743 97.6726C138.807 97.6215 138.807 97.5193 138.743 97.4171C138.679 97.3149 138.487 97.2638 138.359 97.366C138.167 97.4682 138.038 97.5193 137.91 103.344C137.846 103.498 137.974 103.6 138.103 103.6Z" fill="url(#paint21_linear)"/>
<path d="M146.237 104.112C146.557 104.112 146.813 103.907 146.813 103.652L147.197 97.5713C147.197 97.3158 146.941 97.1114 146.621 97.0603C146.301 97.0603 146.045 97.2647 145.981 97.5202L145.596 103.601C145.596 103.907 145.852 104.112 146.237 104.112C146.237 104.112 146.173 104.112 146.237 104.112Z" fill="url(#paint22_linear)"/>
<path d="M77.7686 102.987C79.5619 102.63 83.6611 98.2355 84.0454 99.8706C84.4937 101.455 83.2768 103.498 83.4049 104.163C83.597 104.827 84.942 108.659 83.8532 110.243C83.0846 111.418 81.5475 115.046 80.7148 116.937C80.4586 117.601 80.2665 118.418 79.3698 118.367C78.5372 118.316 77.8967 117.396 77.7686 116.732C77.8967 116.477 75.9752 103.345 77.7686 102.987Z" fill="url(#paint23_linear)"/>
<path d="M207.211 108.404C204.97 104.316 197.924 99.3596 197.54 99.2574C194.466 108.301 189.021 115.71 187.868 124.805C195.49 135.944 193.761 149.076 188.957 155.463C191.263 158.222 194.017 162.003 196.387 166.704C225.657 152.755 214.064 120.922 207.211 108.404Z" fill="url(#paint24_linear)"/>
<path d="M169.679 176.821L144.379 176.361C144.379 176.361 166.476 171.405 167.821 172.733C167.821 172.733 181.528 165.58 189.021 155.463C191.327 158.222 194.081 162.003 196.451 166.704C189.726 169.872 180.887 175.339 169.679 176.821Z" fill="url(#paint25_linear)"/>
<path d="M170.383 173.346C170.383 173.346 170.896 181.368 157.637 180.244C150.464 179.631 138.807 174.266 138.807 174.266C138.807 174.266 169.166 174.164 170.383 173.346Z" fill="url(#paint26_linear)"/>
<path d="M219.615 194.45L216.803 189.253L209.791 188.138C208.975 188.019 208.733 187.212 209.337 186.785L214.778 183.083L213.962 177.483C213.871 176.842 214.748 176.391 215.443 176.724L221.579 179.642L228.108 177.317C228.864 177.056 229.65 177.578 229.468 178.195L227.836 183.676L232.672 187.829C233.217 188.304 232.854 189.063 232.038 189.134L224.874 189.609L221.398 194.545C220.975 195.09 219.947 195.043 219.615 194.45Z" fill="#92B5F9"/>
</g>
<g clip-path="url(#clip2)">
<path d="M73.5375 31.9554L73.7557 21.5523L64.4387 20.985L64.1875 10.7745L55.4394 9.08645L54.0551 1.49252L50.3329 2.31056L52.1793 12.4983L60.4683 14.0755L60.7388 24.7326L69.9028 25.263L69.7001 34.6838L73.5375 31.9554Z" fill="#FA7167"/>
</g>
<g clip-path="url(#clip3)">
<path d="M0.142044 99.3684L4.07197 92.2395L0.852271 84.7032C0.473483 83.8885 1.18371 82.921 2.03598 83.1247L9.56439 84.9578L15.1989 79.3056C15.8617 78.6436 16.9034 79.1019 16.9981 80.0185L17.7083 88.2677L24.4318 92.2904C25.1894 92.7487 25.142 93.9708 24.3371 94.3273L17.2348 97.6371L15.7197 105.784C15.5303 106.701 14.4886 107.007 13.8731 106.294L8.85417 100.132L1.18371 101.1C0.331438 101.202 -0.284093 100.183 0.142044 99.3684Z" fill="#4951EC"/>
</g>
<g clip-path="url(#clip4)">
<path d="M90.1335 227.666L85.0093 228.675C85.0093 228.675 77.5093 225.235 76.9503 223.585C76.3913 221.934 76.6242 218.082 75.5528 217.852C74.4348 217.623 72.2453 217.715 71.4068 220.237C70.8012 222.071 72.8975 227.895 72.3851 228.4C72.059 228.721 69.1242 229.363 66.9814 229.821C65.5838 230.096 64.4658 231.151 64.0466 232.573C63.7671 233.49 64.2329 234.499 65.0714 234.957L66.4223 235.691L65.7702 237.067C65.3043 238.076 65.7702 239.314 66.795 239.818L67.8664 240.323L67.4006 241.148C66.795 242.203 67.2609 243.579 68.4255 244.083L69.3571 244.496L69.264 244.725C68.9845 245.734 69.4969 246.835 70.5217 247.247L71.4534 247.614L85.1025 244.954C86.3602 244.725 87.5714 244.175 88.6428 243.441L93.3012 241.698C93.8137 241.515 94.0932 241.011 93.9534 240.46L91.3447 228.537C91.2515 227.941 90.6925 227.574 90.1335 227.666Z" fill="#FB9390"/>
</g>
<defs>
<linearGradient id="paint0_linear" x1="130.53" y1="188.054" x2="208.73" y2="348.627" gradientUnits="userSpaceOnUse">
<stop stop-color="#0B0754"/>
<stop offset="1" stop-color="#0B0754"/>
</linearGradient>
<linearGradient id="paint1_linear" x1="203.345" y1="99.1699" x2="80.6099" y2="201.052" gradientUnits="userSpaceOnUse">
<stop stop-color="#92B5F9"/>
<stop offset="1" stop-color="#92B5F9"/>
</linearGradient>
<linearGradient id="paint2_linear" x1="166.811" y1="74.0801" x2="165.995" y2="98.6216" gradientUnits="userSpaceOnUse">
<stop stop-color="#FF928E"/>
<stop offset="1" stop-color="#FEB3B1"/>
</linearGradient>
<linearGradient id="paint3_linear" x1="-115.076" y1="-538.771" x2="-105.71" y2="-506.487" gradientUnits="userSpaceOnUse">
<stop stop-color="#FF928E"/>
<stop offset="1" stop-color="#FEB3B1"/>
</linearGradient>
<linearGradient id="paint4_linear" x1="180.449" y1="54.2911" x2="158.429" y2="89.8284" gradientUnits="userSpaceOnUse">
<stop stop-color="#09005D"/>
<stop offset="1" stop-color="#1A0F91"/>
</linearGradient>
<linearGradient id="paint5_linear" x1="-105.693" y1="-541.494" x2="-96.3272" y2="-509.21" gradientUnits="userSpaceOnUse">
<stop stop-color="#FF928E"/>
<stop offset="1" stop-color="#FEB3B1"/>
</linearGradient>
<linearGradient id="paint6_linear" x1="245.203" y1="30.2502" x2="294.649" y2="0.698631" gradientUnits="userSpaceOnUse">
<stop stop-color="#E1473D"/>
<stop offset="1" stop-color="#E9605A"/>
</linearGradient>
<linearGradient id="paint7_linear" x1="167.18" y1="163.016" x2="74.626" y2="97.4259" gradientUnits="userSpaceOnUse">
<stop stop-color="#FE7062"/>
<stop offset="1" stop-color="#FF928E"/>
</linearGradient>
<linearGradient id="paint8_linear" x1="167.718" y1="136.016" x2="185.979" y2="169.279" gradientUnits="userSpaceOnUse">
<stop stop-color="#09005D"/>
<stop offset="1" stop-color="#1A0F91"/>
</linearGradient>
<linearGradient id="paint9_linear" x1="166.807" y1="136.516" x2="185.068" y2="169.778" gradientUnits="userSpaceOnUse">
<stop stop-color="#09005D"/>
<stop offset="1" stop-color="#1A0F91"/>
</linearGradient>
<linearGradient id="paint10_linear" x1="165.707" y1="137.119" x2="183.968" y2="170.382" gradientUnits="userSpaceOnUse">
<stop stop-color="#09005D"/>
<stop offset="1" stop-color="#1A0F91"/>
</linearGradient>
<linearGradient id="paint11_linear" x1="163.806" y1="138.165" x2="182.067" y2="171.428" gradientUnits="userSpaceOnUse">
<stop stop-color="#09005D"/>
<stop offset="1" stop-color="#1A0F91"/>
</linearGradient>
<linearGradient id="paint12_linear" x1="162.552" y1="138.852" x2="180.813" y2="172.115" gradientUnits="userSpaceOnUse">
<stop stop-color="#09005D"/>
<stop offset="1" stop-color="#1A0F91"/>
</linearGradient>
<linearGradient id="paint13_linear" x1="161.773" y1="139.28" x2="180.035" y2="172.542" gradientUnits="userSpaceOnUse">
<stop stop-color="#09005D"/>
<stop offset="1" stop-color="#1A0F91"/>
</linearGradient>
<linearGradient id="paint14_linear" x1="169.022" y1="135.3" x2="187.283" y2="168.563" gradientUnits="userSpaceOnUse">
<stop stop-color="#09005D"/>
<stop offset="1" stop-color="#1A0F91"/>
</linearGradient>
<linearGradient id="paint15_linear" x1="121.789" y1="99.7054" x2="112.477" y2="155.734" gradientUnits="userSpaceOnUse">
<stop stop-color="#FE7062"/>
<stop offset="1" stop-color="#FF928E"/>
</linearGradient>
<linearGradient id="paint16_linear" x1="141.273" y1="96.3347" x2="154.943" y2="121.235" gradientUnits="userSpaceOnUse">
<stop stop-color="#09005D"/>
<stop offset="1" stop-color="#1A0F91"/>
</linearGradient>
<linearGradient id="paint17_linear" x1="140.591" y1="96.7085" x2="154.261" y2="121.609" gradientUnits="userSpaceOnUse">
<stop stop-color="#09005D"/>
<stop offset="1" stop-color="#1A0F91"/>
</linearGradient>
<linearGradient id="paint18_linear" x1="139.768" y1="97.1615" x2="153.439" y2="122.062" gradientUnits="userSpaceOnUse">
<stop stop-color="#09005D"/>
<stop offset="1" stop-color="#1A0F91"/>
</linearGradient>
<linearGradient id="paint19_linear" x1="138.345" y1="97.9423" x2="152.015" y2="122.843" gradientUnits="userSpaceOnUse">
<stop stop-color="#09005D"/>
<stop offset="1" stop-color="#1A0F91"/>
</linearGradient>
<linearGradient id="paint20_linear" x1="137.406" y1="98.4579" x2="151.076" y2="123.359" gradientUnits="userSpaceOnUse">
<stop stop-color="#09005D"/>
<stop offset="1" stop-color="#1A0F91"/>
</linearGradient>
<linearGradient id="paint21_linear" x1="136.823" y1="98.777" x2="150.493" y2="123.677" gradientUnits="userSpaceOnUse">
<stop stop-color="#09005D"/>
<stop offset="1" stop-color="#1A0F91"/>
</linearGradient>
<linearGradient id="paint22_linear" x1="142.249" y1="95.7988" x2="155.92" y2="120.699" gradientUnits="userSpaceOnUse">
<stop stop-color="#09005D"/>
<stop offset="1" stop-color="#1A0F91"/>
</linearGradient>
<linearGradient id="paint23_linear" x1="147.421" y1="105.459" x2="118.671" y2="107.861" gradientUnits="userSpaceOnUse">
<stop stop-color="#FF928E"/>
<stop offset="1" stop-color="#FEB3B1"/>
</linearGradient>
<linearGradient id="paint24_linear" x1="220.941" y1="120.367" x2="98.2054" y2="222.249" gradientUnits="userSpaceOnUse">
<stop stop-color="#92B5F9"/>
<stop offset="1" stop-color="#92B5F9"/>
</linearGradient>
<linearGradient id="paint25_linear" x1="144.546" y1="139.467" x2="157.732" y2="164.261" gradientUnits="userSpaceOnUse">
<stop stop-color="#92B5F9"/>
<stop offset="1" stop-color="#92B5F9"/>
</linearGradient>
<linearGradient id="paint26_linear" x1="181.253" y1="143.024" x2="168.333" y2="167.318" gradientUnits="userSpaceOnUse">
<stop stop-color="#92B5F9"/>
<stop offset="0.9999" stop-color="#92B5F9"/>
<stop offset="1" stop-color="#FEB3B1"/>
</linearGradient>
<clipPath id="clip0">
<rect width="16.6957" height="38.7357" fill="white" transform="matrix(0.750508 0.660861 -0.640251 0.768166 238.015 13.9859)"/>
</clipPath>
<clipPath id="clip1">
<rect width="168" height="274.436" fill="white" transform="translate(77 49.3368)"/>
</clipPath>
<clipPath id="clip2">
<rect width="35.2792" height="19.3805" fill="white" transform="matrix(0.839698 0.543054 -0.522097 0.852886 51.7473 0)"/>
</clipPath>
<clipPath id="clip3">
<rect width="25" height="27.7519" fill="white" transform="translate(0 79.001)"/>
</clipPath>
<clipPath id="clip4">
<rect width="30" height="29.8076" fill="white" transform="matrix(-1 0 0 1 94 217.761)"/>
</clipPath>
</defs>
</svg>
