<svg width="273" height="294" viewBox="0 0 273 294" fill="none" xmlns="http://www.w3.org/2000/svg">
<g clip-path="url(#clip0)">
<path d="M273 157.5C273 201.9 251.8 241.4 218.9 266.3C217.5 267.3 216.2 268.3 214.8 269.3C212.3 271.1 209.8 272.7 207.2 274.3C205.7 275.2 204.3 276 202.8 276.9C192.3 282.7 180.9 287.2 169 290.1C167.5 290.5 166 290.8 164.5 291.1C161.1 291.8 157.7 292.4 154.2 292.8C148.4 293.6 142.6 293.9 136.6 293.9C135.6 293.9 134.6 293.9 133.6 293.9C127.4 293.8 121.3 293.2 115.3 292.3C113.6 292 111.8 291.7 110.1 291.4C104.8 290.4 99.7 289 94.7 287.4C90 285.9 85.4 284.1 80.9 282.1C79 281.3 77.2 280.4 75.3 279.4C75.1 279.3 74.9 279.2 74.7 279.1C73.7 278.6 72.7 278.1 71.8 277.6C71.4 277.4 71 277.2 70.6 277C28.4 253.7 0 208.9 0 157.5C0 140.4 3.1 124.1 8.9 109C12.6 99.2 17.4 90 23.1 81.5C47.6 45 89.2 21 136.5 21C211.9 21 273 82.1 273 157.5Z" fill="#F9ECE9"/>
<path d="M85.7 220.3L74.6 279.2C73.6 278.7 72.6 278.2 71.7 277.7C71.3 277.5 70.9 277.3 70.5 277.1L81.4 219.6L85.7 220.3Z" fill="#184655"/>
<path d="M207.1 274.3C205.6 275.2 204.2 276 202.7 276.9L192.2 220.3L196.5 219.5L207.1 274.3Z" fill="#184655"/>
<path d="M115.1 292.3C113.4 292 111.6 291.7 109.9 291.4L96.7 220.3L101 219.5L115.1 292.3Z" fill="#184655"/>
<path d="M182 220.8L168.9 290.2C167.4 290.6 165.9 290.9 164.4 291.2L177.6 220L182 220.8Z" fill="#184655"/>
<path d="M144.3 83.9C161.5 85.7 183.7 87.7 206 125.5C230.4 166.9 217.5 228.7 198.3 245.8C179.1 263 116.2 284.2 63.4 252.4C63.4 252.4 31.5 233.2 47.9 201.2C73.1 152.1 69.5 141.8 80.8 122.6C92.1 103.4 107.9 80 144.3 83.9Z" fill="#FAE0B2"/>
<path d="M206 125.6C190.8 99.8 175.6 90.7 162 86.9C167.2 92.3 172.6 99.3 177.9 108.4C202.3 149.8 189.4 211.6 170.2 228.7C153.1 243.9 101.8 262.3 53.5 244.2C58.5 249.7 63.3 252.6 63.3 252.6C116.1 284.3 179 263.1 198.2 246C217.6 228.7 230.4 166.9 206 125.6Z" fill="#F7CC7F"/>
<path d="M192.3 -1.0586e-05C174.5 -0.100011 160.1 8.69999 160 19.6C160 25.1 163.5 30 169.3 33.6L162 49.7L177.3 37.3C181.7 38.7 186.7 39.6 192.1 39.6C209.9 39.7 224.3 30.9 224.4 20C224.5 8.99999 210.1 0.0999894 192.3 -1.0586e-05Z" fill="#FAE0B2"/>
<path d="M89.2 146.8L84.8 160.1L98.2 154.8L89.2 146.8Z" fill="#F79C8D"/>
<path d="M103.1 107.4C102.2 107.4 99.7 108.3 96.2 115C91.6 123.6 84.9 149.7 84.9 149.7L104.9 157.1L107.5 151.7L111.7 109.8C111.6 109.8 103.3 107.4 103.1 107.4Z" fill="#78A5FE"/>
<path d="M129.5 103.7C123.8 103.7 109.6 105.4 103 107.5C103 107.5 98.2 148.9 107.3 180.3C109.4 187.3 105.6 209.5 105.6 209.5L164.9 208.7C164.9 208.7 157.9 155.2 160.5 146.6C163.1 138 163.2 107.8 163.2 107.8C163.2 107.8 162.8 107.7 149.9 105.5C144 104.4 135.6 103.6 129.5 103.7Z" fill="#92B5F9"/>
<path d="M112.4 196.9C112.4 196.9 71.5 194.6 62.3 200.2C53.2 205.7 64 217 64 217C64 217 97.3 231.4 153.1 234.7C166.3 235.5 167.5 200.4 165 197.5C162.5 194.5 112.4 196.9 112.4 196.9Z" fill="#0B0754"/>
<path d="M154.1 292.9C148.3 293.7 142.5 294 136.5 294C135.5 294 134.5 294 133.5 294C135.6 278.3 141.1 236.1 142.4 226.1C146.7 193.5 163.6 196.5 163.6 196.5C163.6 196.5 172.2 197.5 173.4 209.8C174.3 219.4 160.1 271.4 154.1 292.9Z" fill="#0B0754"/>
<path d="M124.4 51.5C124.4 51.5 130.6 44.9 135.7 52.9C135.7 52.9 139.6 50.7 142.3 54.6C142.3 54.6 149.3 52.5 151 62.9C151 62.9 154.6 62.2 155.1 66.5C155.6 70.8 153.4 73.6 153.4 73.6C153.4 73.6 155.4 75.1 154.5 79C153.7 82.3 151 82.9 151 82.9C151 82.9 150.3 88.5 147.8 90.2C145.4 91.9 142 91.1 142 91.1C142 91.1 141.1 94.2 138.3 93.9C135.4 93.6 131.9 90.9 128.7 92.1C125.5 93.3 117.2 92 117.2 92C117.2 92 107.9 87.9 110.7 78.4C110.7 78.4 105.8 74 110.1 68.7C110.1 68.7 107 60.4 113.2 55.5C119.3 50.7 124.4 51.5 124.4 51.5Z" fill="#07345A"/>
<path d="M125.5 96.2L124.4 104.6C124.4 104.6 121.9 116.7 125.1 119C128.4 121.3 139 104.2 139 104.2L137.8 83L125.5 96.2Z" fill="#F7A491"/>
<path d="M138.2 89.8C135.5 97 129.1 101.5 124.6 103.2L125.6 96.1L137.8 83L138.2 89.8Z" fill="#F47458"/>
<path d="M130.3 60.6C123.7 58.3 116.6 62.7 115.6 69.5C115.2 72.5 114.8 76.2 114.7 80.3C114.5 90.1 119.6 99.6 124 99.6C128.4 99.6 140.7 93.3 141.2 79.4C141.5 70.8 137.2 63 130.3 60.6Z" fill="#F7A491"/>
<path d="M141.1 84.4C142.867 84.4 144.3 82.6539 144.3 80.5C144.3 78.3461 142.867 76.6 141.1 76.6C139.333 76.6 137.9 78.3461 137.9 80.5C137.9 82.6539 139.333 84.4 141.1 84.4Z" fill="#F7A491"/>
<path d="M111 55.8C106.4 59.4 104.8 65 107.4 68.2C110 71.4 115.8 71 120.4 67.4C125 63.8 126.6 58.2 124 55C121.4 51.8 115.6 52.1 111 55.8Z" fill="#07345A"/>
<path d="M164 112.3C158.5 110.2 155.7 160 155 180.5C145.2 181.4 128.1 180.5 123.8 180.2C121.8 180 117.2 178.4 115.2 178.1C113.2 177.8 111.3 177.7 110.3 177.9C109.9 178 99.7 182.1 98.8 183.1C97.7 184.2 94.8 187.1 95.3 188.3C95.8 189.5 100.9 184.9 100.9 184.9L103.4 183.5C100.3 186.6 94.3 190.6 95.2 192C96 193.4 101.4 189.3 105.3 186.6C102 189.6 97.9 194.9 98.9 195.7C99.7 196.4 104.4 190.3 109.4 188.5C111.2 187.8 113.1 189.7 114.5 189.9C115.6 190.1 117.2 190.4 118.3 190.1L123.7 188.6C125.5 188.8 125.6 189.8 127.4 190.2C129.6 190.7 133.1 191.1 135.8 191.8C151.6 195.6 156.8 197.4 161.7 197.4C176.2 197.4 177.1 117.2 164 112.3Z" fill="#F7A491"/>
<path d="M174.5 159C175.5 138 175.4 112.1 163.6 107.7C158.9 106 150.7 116.4 152.2 159.4C158.5 160 167.8 160.4 174.5 159Z" fill="#92B5F9"/>
<path d="M108.4 150H109.7L127.7 194.3L126.5 194.2L108.4 150Z" fill="#F79C8D"/>
<path d="M94.5 287.4C89.8 285.9 85.2 284.1 80.7 282.1C78.8 281.3 77 280.4 75.1 279.4C73.9 278.8 72.7 278.2 71.6 277.6C65 256.6 55.9 229.6 53.9 223C50.7 212.6 53.4 202.3 63.5 198.2C74.1 193.8 80.1 201.1 82.8 206.6C87.4 216.2 91.1 231.7 91.8 243C92.2 250.4 93.6 272.1 94.5 287.4Z" fill="#0B0754"/>
<path d="M55.6 150H111.6C113.1 150 114.4 150.9 115 152.3L132.2 194.4H163.1C164 194.4 164.7 195.1 164.7 196C164.7 196.9 164 197.6 163.1 197.6H75.2C72.8 197.6 70.6 196.2 69.6 194L52.2 155.3C51.2 152.8 52.9 150 55.6 150Z" fill="#F47458"/>
<path d="M89.3911 177.335C91.07 176.999 92.1237 175.19 91.7447 173.295C91.3656 171.399 89.6973 170.135 88.0184 170.471C86.3396 170.807 85.2859 172.615 85.6649 174.511C86.044 176.406 87.7123 177.671 89.3911 177.335Z" fill="white"/>
<path d="M80.7 37.3L83.2 31.6L80 26.3C79.6 25.7 80.1 24.9 80.8 25L87 25.6L91 20.9C91.5 20.4 92.3 20.6 92.5 21.3L93.8 27.4L99.6 29.8C100.3 30.1 100.3 31 99.7 31.3L94.3 34.4L93.8 40.6C93.7 41.3 92.9 41.6 92.4 41.2L87.8 37L81.7 38.5C81 38.6 80.4 37.9 80.7 37.3Z" fill="#F48C7F"/>
<path d="M231.6 120.8L228.1 121.4L226.6 124.6C226.4 125 225.9 125 225.7 124.6L224.1 121.4L220.6 121C220.2 120.9 220 120.5 220.3 120.2L222.8 117.7L222.1 114.2C222 113.8 222.4 113.5 222.8 113.7L226 115.3L229.1 113.6C229.5 113.4 229.9 113.7 229.8 114.1L229.3 117.6L231.9 120C232.1 120.3 232 120.8 231.6 120.8Z" fill="#F48C7F"/>
<path d="M59.1 90.3L60.5 87.2L58.7 84.3C58.5 84 58.8 83.5 59.1 83.6L62.5 84L64.7 81.4C65 81.1 65.4 81.2 65.5 81.6L66.2 85L69.4 86.3C69.8 86.4 69.8 86.9 69.5 87.1L66.5 88.8L66.2 92.2C66.2 92.6 65.7 92.8 65.4 92.5L62.8 90.2L59.5 91C59.2 91 58.9 90.6 59.1 90.3Z" fill="#50BFA5"/>
<path d="M16.6 38.9L22.1 38.1L24.3 46.8L32.5 46.6L35.3 52.9L38.4 51.5L34.7 43.1L27 43.3L24.6 34.2L16.4 35.4L16.6 38.9Z" fill="#50BFA5"/>
<path d="M7.80001 173.8L11.9 170.1L18.6 176.1L25.3 171.5L31.1 175.2L33 172.3L25.3 167.3L18.9 171.7L12 165.4L5.70001 171L7.80001 173.8Z" fill="#07345A"/>
<path d="M120 88.8L128.6 88.7C128.6 88.7 128.5 92 124.7 92.1C120.1 92.3 120 88.8 120 88.8Z" fill="white"/>
</g>
<defs>
<clipPath id="clip0">
<rect width="273" height="294" fill="white"/>
</clipPath>
</defs>
</svg>
