<svg width="100%" height="100%" viewBox="0 0 292 363" fill="none" xmlns="http://www.w3.org/2000/svg">
    <circle cx="155.5" cy="178.36" r="136.5" fill="#F9ECE9"/>
    <g clip-path="url(#clip0)">
        <path d="M224.197 51.7537C222.34 51.0083 221.943 48.8923 222.743 46.9557C224.294 43.3786 228.203 44.0213 228.985 46.5945C229.847 49.3622 227.11 52.9383 224.197 51.7537ZM230.465 40.3775C230.124 41.0151 229.595 41.1544 228.838 40.8441C228.013 40.5178 227.62 40.3079 227.835 39.4354C229.032 34.0748 229.923 30.6942 230.512 29.338C236.248 16.195 236.502 14.8479 236.96 15.0292C237.694 15.3192 238.653 16.0143 239.41 16.3246C240.167 16.6348 241.387 16.8344 242.121 17.1245C242.511 17.2897 242.026 18.1427 240.874 20.9197C236.635 31.0739 233.393 35.5274 230.465 40.3775Z"
              fill="#FA7167"/>
    </g>
    <g clip-path="url(#clip1)">
        <mask id="mask0" style="mask-type:alpha" maskUnits="userSpaceOnUse" x="19" y="41" width="273" height="274">
            <circle cx="155.5" cy="178.36" r="136.5" fill="#E8F7EB"/>
        </mask>
        <g mask="url(#mask0)">
            <path d="M137.206 178.381C137.206 178.381 161.032 327.66 160.648 328.431C160.648 328.431 167.245 331.45 174.418 328.817C174.418 328.817 172.241 249.038 167.245 218.463C167.245 218.463 207.852 289.762 220.79 325.284C220.79 325.284 227.515 324.449 233.087 320.787C233.087 320.787 189.342 192.448 177.685 175.298L137.206 178.381Z"
                  fill="url(#paint0_linear)"/>
        </g>
        <path d="M133.427 74.1293C131.698 74.2578 130.032 74.5789 128.431 75.0928C111.01 81.1308 97.3035 79.6534 86.7354 74.8359C84.3015 78.1118 80.3305 84.8564 78.6653 96.2258C97.8158 110.55 121.962 106.76 129.84 105.026C127.791 120.378 127.791 144.658 136.245 180.308C136.437 181.271 137.27 181.914 138.231 181.978C143.611 182.428 161.672 183.455 178.966 179.601C179.734 179.409 180.183 178.574 179.862 177.867L179.734 177.482C178.261 174.077 177.621 170.352 177.877 166.69C178.517 155.449 181.528 130.141 187.933 112.734C188.317 113.376 188.637 114.019 189.021 114.597C190.174 103.163 194.53 91.9221 197.604 80.6169C172.433 72.6519 142.586 73.6154 133.427 74.1293Z"
              fill="url(#paint1_linear)"/>
        <path d="M172.625 53.3818C172.625 53.3818 174.354 72.0096 175.891 77.4695C176.148 78.3045 175.763 79.2038 174.995 79.5892C172.369 81.0666 166.092 83.5717 157.509 79.3322C156.1 78.6257 155.268 77.2125 155.332 75.6709L156.1 57.6854L172.625 53.3818Z"
              fill="url(#paint2_linear)"/>
        <path d="M155.716 29.6153C155.716 29.6153 150.08 42.5263 149.759 49.3351C149.375 56.1438 147.902 60.5117 155.716 61.8607C163.53 63.2096 170.127 59.2913 173.714 52.5468C173.714 52.5468 179.286 42.1409 178.069 37.9014C176.788 33.5978 155.716 29.6153 155.716 29.6153Z"
              fill="url(#paint3_linear)"/>
        <path d="M171.024 47.7292L170.575 47.5365C169.999 47.2796 169.743 46.6373 170.063 46.0591C171.152 43.9394 173.329 39.0577 170.511 37.9014C167.885 36.8095 165.067 36.2314 162.377 35.3321C159.879 34.5613 155.011 33.662 153.73 31.0284C153.346 30.2576 153.795 29.3583 154.179 28.5875C154.947 27.1744 155.716 25.7612 156.485 24.4123C157.125 23.2561 157.766 22.0357 158.79 21.1364C161.16 19.1452 163.914 20.8795 166.54 21.3933C176.212 23.1919 182.552 27.1102 182.745 33.7905C182.745 34.2401 183.193 34.4328 183.577 34.2401C184.282 33.7905 185.435 33.5978 186.972 34.8825C189.598 37.1306 188.509 42.9117 182.745 47.665C182.488 47.9219 182.488 48.3073 182.745 48.5C183.769 49.2066 185.371 50.8125 181.271 52.9964C177.044 55.2446 173.906 55.0519 172.689 54.8592C172.369 54.7949 172.177 54.538 172.241 54.2168L173.522 48.3716C173.586 48.0504 173.329 47.7292 173.009 47.7292H171.024Z"
              fill="url(#paint4_linear)"/>
        <path d="M170.767 48.9497C170.767 48.9497 172.881 40.6635 176.596 43.0402C180.311 45.3526 174.674 52.2898 171.728 52.611L170.767 48.9497Z"
              fill="url(#paint5_linear)"/>
        <path d="M173.522 39.0576L149.567 42.2051C148.991 42.2693 148.35 42.0124 147.966 41.5628C145.212 38.0299 141.689 36.1029 137.59 35.3963C137.078 35.3321 137.078 34.5613 137.59 34.4328L152.001 31.0284H152.065C159.431 30.3861 166.604 33.7262 173.65 38.4795C173.906 38.6722 173.778 38.9934 173.522 39.0576Z"
              fill="url(#paint6_linear)"/>
        <path d="M178.709 176.775C184.218 176.903 188.701 172.471 188.701 166.947V123.204C188.701 117.487 184.09 112.798 178.389 112.734C161.16 112.541 125.741 112.541 96.663 114.982C92.6919 115.303 89.6176 118.579 89.4895 122.562L86.7995 164.892C86.6073 170.48 91.0267 175.169 96.5989 175.298L178.709 176.775Z"
              fill="url(#paint7_linear)"/>
        <path d="M178.774 127.957C178.838 131.683 178.709 137.592 178.645 141.382C178.581 143.373 176.852 144.851 174.867 144.658L160.712 142.988C158.854 142.795 157.509 140.997 157.766 139.134L159.495 127.508C159.751 125.838 161.16 124.617 162.825 124.617H175.379C177.236 124.681 178.709 126.094 178.774 127.957Z"
              fill="white"/>
        <path opacity="0.37"
              d="M141.753 149.989L129.968 151.274C128.303 151.467 126.894 150.118 127.022 148.448L129.584 113.248C134.516 113.119 139.448 112.991 144.123 112.927V147.42C144.123 148.705 143.098 149.861 141.753 149.989Z"
              fill="white"/>
        <path d="M136.886 143.887C136.822 144.53 136.309 144.979 135.733 144.979H135.669C135.028 144.915 134.516 144.401 134.58 143.695L136.373 112.927C137.142 112.927 137.974 112.862 138.743 112.862L136.886 143.887Z"
              fill="white"/>
        <path d="M172.177 139.07C172.369 139.07 172.561 138.877 172.561 138.684L173.201 128.985C173.201 128.792 173.073 128.6 172.817 128.535C172.561 128.535 172.433 128.664 172.369 128.921L171.728 138.62C171.792 138.813 171.984 139.005 172.177 139.07Z"
              fill="url(#paint8_linear)"/>
        <path d="M170.96 139.07C171.152 139.07 171.344 138.877 171.344 138.684L171.664 128.792C171.664 128.6 171.472 128.407 171.28 128.407C171.024 128.407 170.896 128.6 170.896 128.792L170.511 138.62C170.511 138.877 170.703 139.005 170.96 139.07C170.896 139.07 170.96 139.07 170.96 139.07Z"
              fill="url(#paint9_linear)"/>
        <path d="M169.23 139.07C169.038 139.07 168.846 138.877 168.846 138.684C168.974 135.344 169.294 129.049 169.294 128.857C169.294 128.664 169.486 128.471 169.679 128.471C169.871 128.471 170.063 128.664 170.063 128.857C170.063 129.049 169.679 137.143 169.615 138.749C169.615 138.877 169.486 139.07 169.23 139.07Z"
              fill="url(#paint10_linear)"/>
        <path d="M166.604 139.455C167.053 139.455 167.373 139.134 167.373 138.684C167.693 129.113 167.629 128.921 167.629 128.792C167.501 128.343 167.053 128.15 166.668 128.214C166.284 128.343 166.028 128.728 166.092 129.113C166.092 129.692 165.964 135.28 165.836 138.684C165.772 139.07 166.156 139.455 166.604 139.455Z"
              fill="url(#paint11_linear)"/>
        <path d="M164.875 139.07C165.067 139.07 165.259 138.877 165.259 138.684V128.985C165.259 128.792 165.067 128.6 164.875 128.6C164.683 128.6 164.491 128.792 164.491 128.985V138.62C164.491 138.877 164.683 139.07 164.875 139.07Z"
              fill="url(#paint12_linear)"/>
        <path d="M163.53 139.07C163.722 139.07 163.914 138.877 163.914 138.684C163.978 135.344 164.17 129.82 164.298 129.178C164.363 129.049 164.363 128.921 164.298 128.792C164.17 128.6 163.914 128.535 163.722 128.664C163.53 128.792 163.274 128.921 163.082 138.684C163.082 138.877 163.274 139.006 163.53 139.07Z"
              fill="url(#paint13_linear)"/>
        <path d="M174.354 139.905C174.803 139.905 175.123 139.584 175.123 139.134L175.635 128.985C175.635 128.535 175.315 128.15 174.867 128.15C174.482 128.15 174.034 128.471 174.034 128.921L173.522 139.07C173.522 139.519 173.842 139.905 174.354 139.905C174.29 139.905 174.29 139.905 174.354 139.905Z"
              fill="url(#paint14_linear)"/>
        <path d="M149.503 114.34C153.602 114.404 156.997 111.128 156.997 106.953V74.1935C156.997 69.8899 153.538 66.357 149.247 66.357C136.373 66.2285 109.793 66.2285 88.0804 68.0271C85.1342 68.284 82.8284 70.7249 82.7003 73.6797L80.6508 105.347C80.5227 109.522 83.7892 113.055 87.9523 113.119L149.503 114.34Z"
              fill="url(#paint15_linear)"/>
        <path d="M149.503 77.7906C149.567 80.5527 149.503 84.9848 149.439 87.8754C149.375 89.3527 148.094 90.5089 146.621 90.3162L136.053 89.0958C134.644 88.9031 133.619 87.6184 133.875 86.2053L135.156 77.5337C135.348 76.3133 136.373 75.414 137.654 75.414H147.069C148.35 75.2855 149.503 76.3775 149.503 77.7906Z"
              fill="white"/>
        <path opacity="0.37"
              d="M121.834 94.2987L112.995 95.2622C111.778 95.3907 110.69 94.3629 110.818 93.1425L112.739 66.7424C116.454 66.6139 120.105 66.5497 123.628 66.4854V92.3074C123.628 93.3352 122.859 94.1702 121.834 94.2987Z"
              fill="white"/>
        <path d="M118.183 89.6739C118.183 90.1235 117.735 90.5089 117.287 90.5089H117.223C116.71 90.5089 116.326 90.0593 116.39 89.5454L117.735 66.5497C118.311 66.5497 118.952 66.5497 119.528 66.4854L118.183 89.6739Z"
              fill="white"/>
        <path d="M144.636 86.0768C144.764 86.0768 144.892 85.9483 144.956 85.8199L145.404 78.5614C145.404 78.3687 145.276 78.2403 145.148 78.2403C144.956 78.2403 144.828 78.3687 144.828 78.4972L144.379 85.7556C144.315 85.9483 144.443 86.0768 144.636 86.0768Z"
              fill="url(#paint16_linear)"/>
        <path d="M143.675 86.0768C143.803 86.0768 143.995 85.9483 143.995 85.8199L144.251 78.433C144.251 78.2403 144.123 78.1118 143.995 78.1118C143.803 78.1118 143.675 78.2402 143.675 78.3687L143.419 85.7556C143.355 85.9483 143.483 86.0768 143.675 86.0768Z"
              fill="url(#paint17_linear)"/>
        <path d="M142.394 86.0768C142.202 86.0768 142.074 85.9483 142.138 85.7556C142.266 83.2505 142.458 78.5614 142.458 78.3687C142.458 78.176 142.586 78.0475 142.778 78.0475C142.97 78.0475 143.098 78.176 143.098 78.3687C143.098 78.4972 142.778 84.5352 142.778 85.7556C142.714 85.9483 142.586 86.0768 142.394 86.0768Z"
              fill="url(#paint18_linear)"/>
        <path d="M140.472 86.398C140.793 86.398 141.049 86.141 141.049 85.8199C141.305 78.6899 141.241 78.4972 141.241 78.3687C141.177 78.0476 140.857 77.8549 140.536 77.9833C140.216 78.0476 140.088 78.3687 140.088 78.6257C140.088 79.0753 139.96 83.2505 139.896 85.7556C139.832 86.0768 140.088 86.398 140.472 86.398C140.408 86.398 140.408 86.398 140.472 86.398Z"
              fill="url(#paint19_linear)"/>
        <path d="M139.127 86.0768C139.319 86.0768 139.448 85.9483 139.448 85.7556V78.5614C139.448 78.3687 139.319 78.2403 139.127 78.2403C138.935 78.2403 138.807 78.3687 138.807 78.5614V85.8199C138.871 85.9483 138.999 86.0768 139.127 86.0768Z"
              fill="url(#paint20_linear)"/>
        <path d="M138.103 86.0768C138.295 86.0768 138.423 85.9483 138.423 85.7556C138.487 83.2505 138.615 79.1396 138.743 78.6257C138.807 78.5615 138.807 78.433 138.743 78.3045C138.679 78.176 138.487 78.1118 138.359 78.2403C138.167 78.3688 138.038 78.433 137.91 85.7556C137.846 85.9483 137.974 86.0768 138.103 86.0768Z"
              fill="url(#paint21_linear)"/>
        <path d="M146.237 86.7191C146.557 86.7191 146.813 86.4622 146.813 86.141L147.197 78.4972C147.197 78.176 146.941 77.9191 146.621 77.8549C146.301 77.8549 146.045 78.1118 145.981 78.433L145.596 86.0768C145.596 86.4622 145.852 86.7191 146.237 86.7191C146.173 86.7191 146.237 86.7191 146.237 86.7191Z"
              fill="url(#paint22_linear)"/>
        <path d="M77.7686 85.306C79.5619 84.8564 83.6611 79.3323 84.0454 81.3878C84.4937 83.379 83.2768 85.9484 83.4049 86.7834C83.597 87.6184 84.942 92.436 83.8532 94.4272C83.0846 95.9046 81.5475 100.465 80.7148 102.842C80.4586 103.677 80.2665 104.705 79.3698 104.64C78.5372 104.576 77.8967 103.42 77.7686 102.585C77.8967 102.264 75.9752 85.7557 77.7686 85.306Z"
              fill="url(#paint23_linear)"/>
        <path d="M207.211 92.1148C204.97 86.9761 197.924 80.7454 197.54 80.6169C194.466 91.9863 189.021 101.3 187.868 112.734C195.49 126.737 193.761 143.245 188.957 151.274C191.263 154.743 194.017 159.496 196.387 165.406C225.657 147.87 214.064 107.852 207.211 92.1148Z"
              fill="url(#paint24_linear)"/>
        <path d="M169.679 178.124L144.379 177.546C144.379 177.546 166.476 171.315 167.821 172.985C167.821 172.985 181.528 163.992 189.021 151.274C191.327 154.743 194.081 159.496 196.451 165.406C189.726 169.388 180.887 176.261 169.679 178.124Z"
              fill="url(#paint25_linear)"/>
        <path d="M170.383 173.756C170.383 173.756 170.896 183.841 157.637 182.428C150.464 181.657 138.807 174.912 138.807 174.912C138.807 174.912 169.166 174.784 170.383 173.756Z"
              fill="url(#paint26_linear)"/>
        <path d="M219.615 200.286L216.803 193.752L209.791 192.35C208.975 192.201 208.733 191.187 209.337 190.65L214.778 185.996L213.962 178.956C213.871 178.151 214.748 177.584 215.443 178.002L221.579 181.671L228.108 178.747C228.864 178.419 229.65 179.075 229.468 179.851L227.836 186.742L232.672 191.963C233.217 192.559 232.854 193.514 232.038 193.603L224.874 194.2L221.398 200.405C220.975 201.091 219.947 201.031 219.615 200.286Z"
              fill="#92B5F9"/>
    </g>
    <g clip-path="url(#clip2)">
        <path d="M73.5375 31.0896L73.7557 20.9684L64.4387 20.4164L64.1875 10.4826L55.4394 8.84025L54.0551 1.45208L50.3329 2.24795L52.1793 12.1597L60.4683 13.6941L60.7388 24.0625L69.9028 24.5785L69.7001 33.7441L73.5375 31.0896Z"
              fill="#FA7167"/>
    </g>
    <g clip-path="url(#clip3)">
        <path d="M0.142044 96.677L4.07197 89.7412L0.852271 82.4091C0.473483 81.6164 1.18371 80.6751 2.03598 80.8733L9.56439 82.6568L15.1989 77.1577C15.8617 76.5137 16.9034 76.9596 16.9981 77.8513L17.7083 85.877L24.4318 89.7907C25.1894 90.2366 25.142 91.4256 24.3371 91.7724L17.2348 94.9926L15.7197 102.919C15.5303 103.811 14.4886 104.108 13.8731 103.415L8.85417 97.4201L1.18371 98.3614C0.331438 98.4605 -0.284093 97.4696 0.142044 96.677Z"
              fill="#4951EC"/>
    </g>
    <g clip-path="url(#clip4)">
        <path d="M90.1335 221.497L85.0093 222.479C85.0093 222.479 77.5093 219.133 76.9503 217.527C76.3913 215.92 76.6242 212.173 75.5528 211.95C74.4348 211.727 72.2453 211.816 71.4068 214.27C70.8012 216.054 72.8975 221.72 72.3851 222.211C72.059 222.524 69.1242 223.148 66.9814 223.594C65.5838 223.862 64.4658 224.888 64.0466 226.271C63.7671 227.164 64.2329 228.145 65.0714 228.591L66.4223 229.305L65.7702 230.644C65.3043 231.625 65.7702 232.83 66.795 233.32L67.8664 233.811L67.4006 234.614C66.795 235.64 67.2609 236.979 68.4255 237.47L69.3571 237.871L69.264 238.094C68.9845 239.076 69.4969 240.147 70.5217 240.548L71.4534 240.905L85.1025 238.317C86.3602 238.094 87.5714 237.559 88.6428 236.845L93.3012 235.15C93.8137 234.971 94.0932 234.48 93.9534 233.945L91.3447 222.345C91.2515 221.765 90.6925 221.408 90.1335 221.497Z"
              fill="#FB9390"/>
    </g>
    <defs>
        <linearGradient id="paint0_linear" x1="128.736" y1="185.582" x2="239.947" y2="367.231"
                        gradientUnits="userSpaceOnUse">
            <stop stop-color="#0B0754"/>
            <stop offset="1" stop-color="#0B0754"/>
        </linearGradient>
        <linearGradient id="paint1_linear" x1="203.345" y1="80.507" x2="58.9821" y2="175.832"
                        gradientUnits="userSpaceOnUse">
            <stop stop-color="#92B5F9"/>
            <stop offset="1" stop-color="#92B5F9"/>
        </linearGradient>
        <linearGradient id="paint2_linear" x1="166.811" y1="48.9659" x2="165.522" y2="79.7979"
                        gradientUnits="userSpaceOnUse">
            <stop stop-color="#FF928E"/>
            <stop offset="1" stop-color="#FEB3B1"/>
        </linearGradient>
        <linearGradient id="paint3_linear" x1="-115.076" y1="-721.464" x2="-100.913" y2="-682.629"
                        gradientUnits="userSpaceOnUse">
            <stop stop-color="#FF928E"/>
            <stop offset="1" stop-color="#FEB3B1"/>
        </linearGradient>
        <linearGradient id="paint4_linear" x1="180.449" y1="24.0887" x2="150.475" y2="62.568"
                        gradientUnits="userSpaceOnUse">
            <stop stop-color="#09005D"/>
            <stop offset="1" stop-color="#1A0F91"/>
        </linearGradient>
        <linearGradient id="paint5_linear" x1="-105.693" y1="-724.887" x2="-91.5299" y2="-686.052"
                        gradientUnits="userSpaceOnUse">
            <stop stop-color="#FF928E"/>
            <stop offset="1" stop-color="#FEB3B1"/>
        </linearGradient>
        <linearGradient id="paint6_linear" x1="245.203" y1="-6.13368" x2="299.939" y2="-32.1561"
                        gradientUnits="userSpaceOnUse">
            <stop stop-color="#E1473D"/>
            <stop offset="1" stop-color="#E9605A"/>
        </linearGradient>
        <linearGradient id="paint7_linear" x1="167.18" y1="160.77" x2="61.6727" y2="101.293"
                        gradientUnits="userSpaceOnUse">
            <stop stop-color="#FE7062"/>
            <stop offset="1" stop-color="#FF928E"/>
        </linearGradient>
        <linearGradient id="paint8_linear" x1="167.718" y1="126.827" x2="193.158" y2="163.688"
                        gradientUnits="userSpaceOnUse">
            <stop stop-color="#09005D"/>
            <stop offset="1" stop-color="#1A0F91"/>
        </linearGradient>
        <linearGradient id="paint9_linear" x1="166.807" y1="127.456" x2="192.247" y2="164.317"
                        gradientUnits="userSpaceOnUse">
            <stop stop-color="#09005D"/>
            <stop offset="1" stop-color="#1A0F91"/>
        </linearGradient>
        <linearGradient id="paint10_linear" x1="165.707" y1="128.215" x2="191.147" y2="165.076"
                        gradientUnits="userSpaceOnUse">
            <stop stop-color="#09005D"/>
            <stop offset="1" stop-color="#1A0F91"/>
        </linearGradient>
        <linearGradient id="paint11_linear" x1="163.806" y1="129.527" x2="189.246" y2="166.388"
                        gradientUnits="userSpaceOnUse">
            <stop stop-color="#09005D"/>
            <stop offset="1" stop-color="#1A0F91"/>
        </linearGradient>
        <linearGradient id="paint12_linear" x1="162.552" y1="130.393" x2="187.992" y2="167.253"
                        gradientUnits="userSpaceOnUse">
            <stop stop-color="#09005D"/>
            <stop offset="1" stop-color="#1A0F91"/>
        </linearGradient>
        <linearGradient id="paint13_linear" x1="161.773" y1="130.93" x2="187.213" y2="167.791"
                        gradientUnits="userSpaceOnUse">
            <stop stop-color="#09005D"/>
            <stop offset="1" stop-color="#1A0F91"/>
        </linearGradient>
        <linearGradient id="paint14_linear" x1="169.022" y1="125.927" x2="194.462" y2="162.788"
                        gradientUnits="userSpaceOnUse">
            <stop stop-color="#09005D"/>
            <stop offset="1" stop-color="#1A0F91"/>
        </linearGradient>
        <linearGradient id="paint15_linear" x1="121.789" y1="81.1801" x2="107.299" y2="150.533"
                        gradientUnits="userSpaceOnUse">
            <stop stop-color="#FE7062"/>
            <stop offset="1" stop-color="#FF928E"/>
        </linearGradient>
        <linearGradient id="paint16_linear" x1="141.273" y1="76.9427" x2="160.317" y2="104.537"
                        gradientUnits="userSpaceOnUse">
            <stop stop-color="#09005D"/>
            <stop offset="1" stop-color="#1A0F91"/>
        </linearGradient>
        <linearGradient id="paint17_linear" x1="140.591" y1="77.4134" x2="159.635" y2="105.008"
                        gradientUnits="userSpaceOnUse">
            <stop stop-color="#09005D"/>
            <stop offset="1" stop-color="#1A0F91"/>
        </linearGradient>
        <linearGradient id="paint18_linear" x1="139.768" y1="77.9814" x2="158.813" y2="105.576"
                        gradientUnits="userSpaceOnUse">
            <stop stop-color="#09005D"/>
            <stop offset="1" stop-color="#1A0F91"/>
        </linearGradient>
        <linearGradient id="paint19_linear" x1="138.345" y1="78.964" x2="157.389" y2="106.558"
                        gradientUnits="userSpaceOnUse">
            <stop stop-color="#09005D"/>
            <stop offset="1" stop-color="#1A0F91"/>
        </linearGradient>
        <linearGradient id="paint20_linear" x1="137.406" y1="79.6118" x2="156.45" y2="107.206"
                        gradientUnits="userSpaceOnUse">
            <stop stop-color="#09005D"/>
            <stop offset="1" stop-color="#1A0F91"/>
        </linearGradient>
        <linearGradient id="paint21_linear" x1="136.823" y1="80.014" x2="155.867" y2="107.608"
                        gradientUnits="userSpaceOnUse">
            <stop stop-color="#09005D"/>
            <stop offset="1" stop-color="#1A0F91"/>
        </linearGradient>
        <linearGradient id="paint22_linear" x1="142.249" y1="76.2691" x2="161.294" y2="103.863"
                        gradientUnits="userSpaceOnUse">
            <stop stop-color="#09005D"/>
            <stop offset="1" stop-color="#1A0F91"/>
        </linearGradient>
        <linearGradient id="paint23_linear" x1="147.421" y1="88.4125" x2="118.598" y2="90.3285"
                        gradientUnits="userSpaceOnUse">
            <stop stop-color="#FF928E"/>
            <stop offset="1" stop-color="#FEB3B1"/>
        </linearGradient>
        <linearGradient id="paint24_linear" x1="220.941" y1="107.154" x2="76.5777" y2="202.479"
                        gradientUnits="userSpaceOnUse">
            <stop stop-color="#92B5F9"/>
            <stop offset="1" stop-color="#92B5F9"/>
        </linearGradient>
        <linearGradient id="paint25_linear" x1="144.546" y1="131.166" x2="163.02" y2="158.798"
                        gradientUnits="userSpaceOnUse">
            <stop stop-color="#92B5F9"/>
            <stop offset="1" stop-color="#92B5F9"/>
        </linearGradient>
        <linearGradient id="paint26_linear" x1="181.253" y1="135.637" x2="163.15" y2="162.713"
                        gradientUnits="userSpaceOnUse">
            <stop stop-color="#92B5F9"/>
            <stop offset="0.9999" stop-color="#92B5F9"/>
            <stop offset="1" stop-color="#FEB3B1"/>
        </linearGradient>
        <clipPath id="clip0">
            <rect width="16.4996" height="38.1199" fill="white" transform="translate(238.015 13.6069) rotate(40.5864)"/>
        </clipPath>
        <clipPath id="clip1">
            <rect width="168" height="345" fill="white" transform="translate(77 17.8605)"/>
        </clipPath>
        <clipPath id="clip2">
            <rect width="35" height="19" fill="white" transform="translate(51.7473) rotate(32.1782)"/>
        </clipPath>
        <clipPath id="clip3">
            <rect width="25" height="27" fill="white" transform="translate(0 76.8605)"/>
        </clipPath>
        <clipPath id="clip4">
            <rect width="30" height="29" fill="white" transform="matrix(-1 0 0 1 94 211.86)"/>
        </clipPath>
    </defs>
</svg>
