<svg xmlns="http://www.w3.org/2000/svg" width="306" height="332" fill="none" viewBox="0 0 306 332"><circle cx="162.5" cy="195.5" r="136.5" fill="#F9ECE9"/><path fill="#0B0754" d="M221.625 107.518C218.948 95.3578 208.795 86.5999 196.914 86.8788C194.18 80.4638 188.825 75.2203 182.578 72.7658C170.25 67.9685 152.288 70.2556 150.837 84.0339C144.59 92.4013 142.582 105.51 149.164 113.71C144.813 125.648 154.519 139.37 169.413 141.323C173.373 150.75 182.41 157.89 192.395 158.28C194.794 158.392 198.476 158.336 199.033 158.615C198.308 158.336 212.979 173.788 229.658 156.384C246.727 138.589 240.089 112.706 221.625 107.518Z"/><path fill="#FB9390" d="M140.183 115.551C140.183 115.551 99.5174 95.9156 99.2943 95.1347C99.0154 93.9632 113.017 78.623 120.38 77.34C126.014 76.3917 132.931 70.8693 132.931 70.8693C132.931 70.8693 125.456 62.223 118.316 63.6733C111.176 65.1237 111.622 70.925 111.622 70.925C111.622 70.925 92.4888 81.2448 81.3323 91.3972C70.7336 100.992 126.851 127.433 126.851 127.433L140.183 115.551Z"/><mask id="mask0" width="273" height="273" x="26" y="59" maskUnits="userSpaceOnUse" style="mask-type:alpha"><circle cx="162.5" cy="195.5" r="136.5" fill="#F47458"/></mask><g mask="url(#mask0)"><path fill="#0B0754" d="M143.641 189.128L179.286 216.183C179.286 216.183 161.659 233.141 155.021 239.444C148.383 245.748 111.343 269.901 110.73 271.352C110.283 272.412 114.021 285.967 122.556 329.421C118.762 333.27 110.507 337.064 105.598 338.291C93.214 314.751 83.5636 266.387 83.5636 260.92C83.5636 252.051 143.641 189.128 143.641 189.128Z"/></g><path fill="#FB9390" d="M243.604 243.126C242.432 244.241 234.678 259.303 231.778 267.391C227.482 264.658 224.861 261.422 220.063 259.637C223.857 254.115 231.276 240.894 231.889 237.77C233.34 230.296 235.013 229.18 235.013 229.18C235.013 229.18 260.059 237.659 261.733 240.002C263.351 242.4 248.289 238.551 243.604 243.126Z"/><path fill="#0B0754" d="M231.555 239.388C229.602 239.388 231.722 230.63 232.168 228.622C232.67 226.335 234.009 225.666 234.288 225.61C235.181 225.387 263.016 234.814 267.702 238.161C268.036 238.384 268.594 239.109 268.706 239.277C271.272 244.074 248.345 244.966 245.054 242.903C242.098 241.006 240.257 239.388 231.555 239.388Z"/><path fill="#0B0754" d="M136.055 197.105C136.055 197.105 169.636 183.885 170.082 185.279C173.541 196.492 185.869 192.866 192.284 212.613C194.961 220.868 195.631 242.679 197.416 258.856C198.643 269.957 200.428 278.882 200.428 278.882C200.428 278.882 208.182 269.734 222.853 253.222C223.968 251.939 235.794 260.809 235.794 260.809C212.477 306.997 195.352 313.914 191.782 312.296C167.628 301.251 147.937 218.526 147.937 218.526C145.203 213.171 136.055 197.105 136.055 197.105Z"/><path fill="#FB9390" d="M187.877 118.842C187.877 118.842 227.985 118.786 236.519 118.284C244.273 117.838 275.065 118.619 276.292 118.507C277.519 118.396 285.441 104.896 286.779 106.347C288.118 107.797 282.373 113.041 284.102 114.379C285.887 115.718 305.02 112.706 304.741 114.101C304.239 116.722 293.139 116.388 293.139 117.671C293.139 118.954 304.797 116.945 305.578 119.065C306.359 121.185 294.366 119.902 293.864 120.85C293.362 121.799 305.02 123.528 303.793 125.48C303.124 126.54 293.473 123.695 293.529 125.146C293.585 126.596 300.613 129.943 299.777 131.114C298.94 132.286 294.254 127.544 290.182 127.488C286.11 127.433 283.154 125.313 276.627 127.098C273.392 127.99 248.847 131.003 228.04 132.788C206.731 134.629 189.272 135.186 189.272 135.186L187.877 118.842Z"/><path fill="#92B5F9" d="M128.413 154.431C127.855 148.016 129.138 135.744 129.417 133.624C127.465 126.931 115.583 126.261 114.133 123.472C114.133 123.472 119.376 106.57 126.516 106.626C126.516 106.626 143.307 112.985 148.941 115.941C148.997 115.941 150.949 116.778 151.786 116.778C157.252 116.722 176.274 116.165 179.789 117.224L177.78 146.622C176.776 148.295 175.103 183.94 172.983 186.729C170.863 189.519 140.685 200.396 135.609 197.105C135.386 196.993 129.473 167.484 128.413 154.431Z"/><path fill="#92B5F9" d="M169.859 117.894C173.373 116.22 199.033 116.276 199.033 116.276C199.033 116.276 202.603 133.959 199.703 138.199C199.703 138.199 176.999 141.602 177.613 143.442L169.859 117.894Z"/><path fill="#FB9390" d="M165.675 104.785C165.675 104.785 161.548 114.324 161.101 118.34C160.599 122.356 155.969 134.629 147.658 132.844C139.346 131.058 149.61 116.388 151.228 112.706C152.845 109.024 155.69 97.1427 155.69 97.1427L165.675 104.785Z"/><path fill="#EF7F7F" d="M154.184 103.056C155.021 99.8203 155.69 97.087 155.69 97.087L165.675 104.729C165.675 104.729 164.839 106.682 163.89 109.192C158.758 109.136 155.635 106.57 154.184 103.056Z"/><path fill="#FB9390" d="M178.896 81.5794C178.896 81.5794 181.908 85.5957 181.239 91.1182C180.569 96.5849 173.262 108.299 161.548 106.682C149.833 105.064 149.777 93.1822 155.356 86.3767C160.934 79.627 169.971 71.929 178.896 81.5794Z"/><path fill="#FB9390" d="M159.907 84.3362C160.631 82.1747 160.201 80.0811 158.945 79.66C157.689 79.2389 156.083 80.6497 155.358 82.8111C154.634 84.9726 155.064 87.0662 156.32 87.4873C157.576 87.9085 159.182 86.4976 159.907 84.3362Z"/><path fill="#0B0754" d="M177.948 80.4081C177.948 80.4081 173.597 95.1347 176.944 99.6531C180.291 104.171 175.661 109.527 175.661 109.527C175.661 109.527 186.148 97.0313 184.642 90.8394C183.247 84.6476 177.948 80.4081 177.948 80.4081Z"/><path fill="#FB9390" d="M176.514 105.408C178.554 104.137 179.521 102.005 178.674 100.645C177.827 99.2856 175.487 99.2132 173.447 100.484C171.407 101.754 170.44 103.886 171.287 105.246C172.134 106.606 174.474 106.678 176.514 105.408Z"/><path fill="#F47458" d="M150.224 65.1236L151.005 67.2433C151.451 68.4705 151.061 69.9209 149.945 70.7018L148.048 72.0964C146.877 72.9889 145.203 72.8774 144.144 71.8175L142.47 70.144L150.224 65.1236Z"/><path fill="#0B0754" d="M139.681 68.4705L136.557 67.6338L134.381 68.8052C134.381 68.8052 120.38 75.0529 117.647 75.0529C114.858 75.0529 112.738 70.0325 113.407 69.0842C114.077 68.1359 123.113 65.8488 123.113 65.8488L128.747 60.7726L129.082 57.0909L139.681 68.4705Z"/><path fill="#F47458" d="M140.797 44.4843L150.67 61.9442C151.563 63.5619 151.116 65.57 149.61 66.6299L143.641 70.7578C142.135 71.7619 140.127 71.5388 138.956 70.2L125.791 55.585L140.797 44.4843Z"/><path fill="#F47458" d="M141.196 44.4342L125.577 56.2601C124.406 57.1526 122.788 57.041 121.728 56.0369L93.0001 28.6477L124.238 6L142.033 40.6967C142.702 41.9797 142.368 43.5416 141.196 44.4342Z"/><path fill="#0B0754" d="M112.216 22.3635C121.076 16.3265 126.515 8.87323 124.364 5.71624C122.213 2.55925 113.286 4.89401 104.426 10.9311C95.5665 16.9681 90.1279 24.4214 92.279 27.5784C94.4302 30.7354 103.356 28.4006 112.216 22.3635Z"/><path fill="#DDE8FE" d="M94.8316 26.2989C97.3418 26.9125 103.757 24.9601 110.73 20.2186C119.487 14.2499 122.779 8.39272 122.277 7.16551C122.277 7.16551 122.165 7.05394 121.83 6.99816C119.32 6.38455 112.905 8.33694 105.932 13.0785C97.1745 19.0472 93.8833 24.9601 94.3853 26.1874C94.4411 26.1874 94.5527 26.2431 94.8316 26.2989Z"/><path fill="#FB9390" d="M115.75 64.6773L119.432 66.0719C119.432 66.0719 121.83 67.1318 122.388 69.2515C122.946 71.3712 125.624 70.8692 124.843 68.6379C124.117 66.4624 123.336 65.1236 123.336 65.1236C123.336 65.1236 126.349 69.2515 126.683 69.3073C128.413 69.4746 128.692 66.9086 125.735 63.9522C122.723 61.0515 115.75 64.6773 115.75 64.6773Z"/><path fill="#FB9390" d="M128.19 66.2951C128.19 66.2951 134.549 68.8611 133.266 70.4788C131.983 72.0407 128.19 73.8257 128.078 72.989C127.967 72.1522 130.588 70.9808 128.859 69.2516C128.413 68.6937 126.07 66.2951 128.19 66.2951Z"/><g clip-path="url(#clip0)"><path fill="#92B5F9" d="M71.1675 188.455L68.4736 182.49L61.7532 181.21C60.9711 181.074 60.7393 180.148 61.3187 179.658L66.5328 175.409L65.7507 168.98C65.6638 168.245 66.5038 167.728 67.1701 168.109L73.0504 171.459L79.3073 168.79C80.0315 168.49 80.7847 169.089 80.6109 169.798L79.0466 176.089L83.6814 180.856C84.2028 181.401 83.8552 182.272 83.0731 182.354L76.2078 182.899L72.8766 188.564C72.4711 189.191 71.4862 189.136 71.1675 188.455Z"/></g><g clip-path="url(#clip1)"><path fill="#FAE0B2" d="M26.8325 22.0563C44.3553 20.9397 62.8061 37.8285 63.4812 47.9897C63.8187 53.0703 60.556 57.8996 55.0433 61.6124L65 84.0005L47.3929 65.4647C43.1177 67.0558 38.1956 68.1166 32.936 68.4516C15.4132 69.5682 0.675041 62.2265 0.0281296 52.0653C-0.618774 41.8762 9.30983 23.1729 26.8325 22.0563Z"/><path fill="#FA7167" d="M31.1921 41.0941C32.3172 45.7839 35.9174 47.5146 39.18 46.7609C42.6114 45.9513 44.7209 42.7411 43.7084 38.5259C42.7521 34.534 39.5457 32.0774 35.6923 32.9986C31.7828 33.8919 30.264 37.2418 31.1921 41.0941ZM39.7425 39.3075C40.3051 41.6524 39.9113 43.5227 38.3925 43.9135C36.9018 44.2764 35.8048 42.9365 35.1861 40.3962C34.6235 38.1071 34.8486 36.2089 36.4799 35.8181C38.0268 35.4552 39.2081 37.0743 39.7425 39.3075ZM39.7144 54.633L23.0917 36.6276C22.7823 36.2926 22.3042 36.1531 21.8542 36.2368C20.8979 36.4601 20.5604 37.6326 21.2073 38.3305L37.8299 56.3079C38.1393 56.6429 38.6175 56.7825 39.0675 56.6708C40.0238 56.4754 40.3613 55.3309 39.7144 54.633ZM17.1571 54.2701C18.2821 58.9599 21.8823 60.6907 25.145 59.9369C28.5483 59.1274 30.6577 55.9171 29.6733 51.7019C28.717 47.71 25.5106 45.2535 21.6573 46.1747C17.7477 47.0959 16.2289 50.4457 17.1571 54.2701ZM25.6794 52.5115C26.27 54.8563 25.8762 56.7267 24.3574 57.0896C22.8667 57.4525 21.7698 56.1125 21.151 53.5722C20.5885 51.2832 20.7573 49.3849 22.3886 48.9941C24.0199 48.6312 25.145 50.2503 25.6794 52.5115Z"/></g><g clip-path="url(#clip2)"><path fill="#4951EC" d="M247.103 62.9444L249.932 58.0636L247.614 52.904C247.341 52.3462 247.853 51.6838 248.466 51.8233L253.887 53.0783L257.943 49.2086C258.421 48.7554 259.171 49.0691 259.239 49.6967L259.75 55.3444L264.591 58.0985C265.137 58.4123 265.103 59.249 264.523 59.493L259.409 61.759L258.318 67.337C258.182 67.9645 257.432 68.1737 256.989 67.6856L253.375 63.4673L247.853 64.1297C247.239 64.1994 246.796 63.5022 247.103 62.9444Z"/></g><g clip-path="url(#clip3)"><path fill="#FA7167" d="M191.343 20.2832L184.644 25.3373L189.107 31.5557L182.724 36.8297L186.223 43.287L182.099 47.9351L184.562 49.9042L190.058 43.6798L186.755 37.5336L193.379 32.0774L189.008 25.9334L195.062 21.3787L191.343 20.2832Z"/></g><g clip-path="url(#clip4)"><path fill="#4951EC" d="M30.2601 208L28.4469 212.55L20.7912 210.416L17.326 216.738L11.3223 216.094L11 219.114L19.0183 220L22.3223 214L30.2601 216.215L33 209.369L30.2601 208Z"/></g><defs><clipPath id="clip0"><rect width="23" height="21" fill="#fff" transform="translate(61 168)"/></clipPath><clipPath id="clip1"><rect width="65" height="62" fill="#fff" transform="matrix(-1 0 0 1 65 22)"/></clipPath><clipPath id="clip2"><rect width="18" height="19" fill="#fff" transform="translate(247 49)"/></clipPath><clipPath id="clip3"><rect width="15" height="29" fill="#fff" transform="translate(180 21.1729) rotate(-4.48489)"/></clipPath><clipPath id="clip4"><rect width="22" height="12" fill="#fff" transform="translate(11 208)"/></clipPath></defs></svg>