<svg width="246" height="249" viewBox="0 0 246 249" fill="none" xmlns="http://www.w3.org/2000/svg">
    <g clip-path="url(#clip0)">
        <path d="M111.417 169.441L160.462 167.346" stroke="#292825" stroke-width="1.5516"
              stroke-miterlimit="10"/>
        <mask id="mask0" style="mask-type:alpha" maskUnits="userSpaceOnUse" x="-12" y="-39" width="273"
              height="273">
            <circle cx="124.5" cy="97.5" r="136.5" fill="#F9ECE9"/>
        </mask>
        <g mask="url(#mask0)">
            <path
                    d="M160.462 167.346L159.919 159.584L111.494 161.99V169.519C111.494 169.519 100.569 179.92 96.308 249H183.551C183.473 248.923 193.003 187.759 160.462 167.346Z"
                    fill="#0B0754"/>
            <path d="M121.412 201.343L131.484 205.379L136.83 248.923" stroke="#292825" stroke-width="1.5516"
                  stroke-miterlimit="10"/>
        </g>
        <path
                d="M58.4202 152.287L71.8242 108.045L101.267 119.067L87.1654 161.446C84.2986 170.217 74.3036 174.331 66.0907 170.14C59.5049 166.88 56.2507 159.273 58.4202 152.287Z"
                fill="#F26E5A"/>
        <path
                d="M79.1074 84.3717C81.7417 75.7561 91.0394 71.0214 99.5622 73.9709C107.853 76.8428 112.346 85.8465 109.557 94.1517L101.344 119.145L71.9017 108.123L79.1074 84.3717Z"
                fill="#78A5FE"/>
        <path
                d="M81.1994 148.95L47.5729 85.0704C47.5729 85.0704 48.3477 73.5052 29.2101 72.8066C28.9776 72.8066 28.6677 72.8066 28.4353 72.8066H22.0044C20.8422 72.8066 19.7575 73.6604 19.6025 74.8247C19.4476 76.2219 20.3773 77.3861 21.617 77.5414L28.0479 78.4728L19.2926 80.8013L17.6655 81.4223L5.65606 73.5052C4.7263 72.8066 3.40914 73.1171 2.78929 74.2038C2.32441 74.98 2.55685 75.989 3.25417 76.6099C4.02898 77.2309 5.19118 78.2399 6.50835 79.4042L3.87402 77.8518C2.86677 77.2309 1.54961 77.6966 1.08473 78.7056C0.697324 79.5594 1.00725 80.5685 1.70457 81.0342C2.32441 81.4999 3.17669 82.0432 4.02898 82.6642L3.25417 82.2761C2.24693 81.888 1.08473 82.1985 0.464883 83.0523C-0.3874 84.2942 0.154962 85.9242 1.47213 86.4675L14.5663 91.9784C16.8132 92.9098 18.9827 93.5308 21.617 92.9098L33.2391 90.1932L59.2724 163.232L81.1994 148.95Z"
                fill="#F26E5A"/>
        <path d="M67.3304 122.715L73.6063 134.513" stroke="#DB5749" stroke-width="1.5" stroke-miterlimit="10"/>
        <path
                d="M105.296 73.1951L92.8214 74.1265C92.8214 74.1265 74.691 98.7315 111.494 161.913L159.919 159.507L163.561 91.4354L157.595 72.1084H135.9L105.296 73.1951Z"
                fill="#78A5FE"/>
        <path d="M91.0394 115.264C91.0394 115.264 87.3978 107.658 89.7222 90.8145" stroke="#FCE7E4"
              stroke-width="1.5516" stroke-miterlimit="10"/>
        <path
                d="M203.541 143.362L183.396 101.759L156.045 117.282L176.578 156.946C180.839 165.173 191.299 167.657 198.814 162.301C204.78 157.955 206.795 149.96 203.541 143.362Z"
                fill="#F26E5A"/>
        <path
                d="M172.549 79.5596C168.597 71.4873 158.68 68.2274 150.777 72.4188C143.029 76.5325 140.007 86.0796 144.036 93.9191L156.045 117.282L183.396 101.759L172.549 79.5596Z"
                fill="#78A5FE"/>
        <path d="M156.045 117.282L146.128 97.9551" stroke="#FCE7E4" stroke-width="1.5516"
              stroke-miterlimit="10"/>
        <path
                d="M245.613 72.1856C244.993 71.3318 243.831 71.0214 242.823 71.4094L237.012 73.6604L242.513 69.0033C243.443 68.2271 243.676 66.9076 242.978 65.8985C242.203 64.8119 240.654 64.579 239.647 65.4328L234.533 69.5466L238.872 63.8805C239.569 62.949 239.569 61.5519 238.639 60.7757C237.632 59.8443 236.083 59.9995 235.308 61.0086L226.707 69.8571L217.952 67.5285L224.383 66.5971C225.7 66.4419 226.63 65.2776 226.397 63.8805C226.243 62.7162 225.158 61.8624 223.996 61.8624H217.565C213.768 61.8624 210.127 63.1819 207.337 65.6657C207.26 65.6657 207.26 65.7433 207.182 65.7433C203.231 68.848 204.703 75.2128 204.703 75.2128L180.607 143.595L204.471 154.228L218.262 80.8013H227.095C227.637 80.8789 228.18 80.8789 228.722 80.8013H228.799C229.729 80.7237 230.659 80.4908 231.589 80.1027L244.683 75.4456C245.923 74.9799 246.387 73.3499 245.613 72.1856Z"
                fill="#F26E5A"/>
        <path d="M189.982 115.264L184.791 133.426" stroke="#DB5749" stroke-width="1.5" stroke-miterlimit="10"/>
        <path
                d="M104.289 16.8432C102.816 17.8523 92.6665 20.4913 92.5115 22.3541C92.5115 22.3541 95.8432 35.394 92.434 37.8002C83.2139 44.3978 80.2696 57.2048 80.2696 57.2048C80.2696 57.2048 104.521 75.4452 169.062 56.2734C169.062 56.2734 169.837 48.5116 158.06 42.923C154.728 41.293 151.706 38.8869 149.847 35.6269C148.375 33.0655 148.142 31.9788 147.755 29.7279C146.748 23.3632 129.16 -0.310458 104.289 16.8432Z"
                fill="#292825"/>
        <path
                d="M98.0872 44.6117C102.356 44.3141 105.576 40.6061 105.279 36.3297C104.982 32.0532 101.28 28.8277 97.0115 29.1252C92.7426 29.4228 89.5229 33.1308 89.8199 37.4073C90.117 41.6837 93.8184 44.9093 98.0872 44.6117Z"
                fill="#DB5749"/>
        <path
                d="M108.782 55.342L109.867 72.1852C110.254 78.0842 112.656 82.1204 118.467 81.7323C123.426 81.4218 129.315 77.3857 129.625 72.4181L126.68 45.9502L108.782 55.342Z"
                fill="#F26E5A"/>
        <path
                d="M105.296 73.1941L135.823 72.1074C135.823 72.1074 135.048 87.1654 116.918 85.7683C104.289 84.8368 105.296 73.1941 105.296 73.1941Z"
                fill="#F26E5A"/>
        <path d="M109.635 69.2362L129.16 50.0645L108.627 53.5573L109.635 69.2362Z" fill="#DB5749"/>
        <path
                d="M113.896 58.059C103.979 58.059 95.7657 50.2196 95.4557 42.0696L94.8359 22.8979C94.4485 12.7299 102.197 4.03658 112.424 3.33802C122.806 2.63945 133.654 10.3237 134.428 20.8022L134.738 36.2482C134.893 48.1239 125.751 57.2052 113.896 58.059Z"
                fill="#F26E5A"/>
        <path d="M105.838 35.3164L105.296 40.1288L107.698 40.2064" stroke="#292825" stroke-width="1.2385"
              stroke-miterlimit="10" stroke-linecap="round" stroke-linejoin="round"/>
        <path
                d="M115.678 23.6737C115.678 23.6737 110.177 23.208 110.1 25.4589C110.1 25.4589 110.1 27.0113 114.903 27.2441C119.707 27.5546 120.947 27.1665 121.412 25.7694C121.799 24.3722 118.235 23.6737 115.678 23.6737Z"
                fill="#292825"/>
        <path
                d="M99.7171 26.9332C99.7171 26.9332 103.901 26.6227 104.288 28.6408C104.288 28.6408 104.521 30.0379 100.879 30.1932C97.2378 30.426 96.0756 29.9603 96.0756 28.796C95.9206 27.4765 97.7801 26.9332 99.7171 26.9332Z"
                fill="#292825"/>
        <path
                d="M100.477 35.3941C101.461 35.3618 102.233 34.5368 102.2 33.5513C102.168 32.5659 101.345 31.7931 100.361 31.8254C99.3772 31.8576 98.6058 32.6827 98.638 33.6681C98.6702 34.6536 99.4938 35.4263 100.477 35.3941Z"
                fill="#292825"/>
        <path
                d="M115.197 34.8521C116.181 34.8198 116.952 33.9948 116.92 33.0093C116.888 32.0239 116.064 31.2512 115.081 31.2834C114.097 31.3157 113.326 32.1407 113.358 33.1261C113.39 34.1116 114.214 34.8843 115.197 34.8521Z"
                fill="#292825"/>
        <path d="M111.804 43.4668C111.804 43.4668 109.17 42.3025 106.071 45.0191" stroke="#292825"
              stroke-width="1.2385" stroke-miterlimit="10" stroke-linecap="round" stroke-linejoin="round"/>
        <path
                d="M118.545 0.000497136C116.066 -0.15474 113.586 0.155734 111.184 0.776682C105.218 2.32905 94.526 6.7533 92.6664 18.2408C92.0466 21.268 92.5115 22.277 92.5115 22.277C92.5115 22.277 112.501 23.0532 124.278 17.4646C125.983 24.6832 127.533 29.1074 134.661 36.1707L140.937 26.7012L148.065 33.066C148.142 33.2988 148.142 1.63048 118.545 0.000497136Z"
                fill="#292825"/>
        <path
                d="M137.835 44.6908C142.104 44.3933 145.324 40.6853 145.027 36.4088C144.73 32.1324 141.028 28.9068 136.759 29.2044C132.491 29.5019 129.271 33.2099 129.568 37.4864C129.865 41.7628 133.566 44.9884 137.835 44.6908Z"
                fill="#F26E5A"/>
        <path d="M134.351 39.1211C134.351 39.1211 133.963 33.5326 139.387 33.9983" stroke="#292825"
              stroke-width="1.2385" stroke-miterlimit="10" stroke-linecap="round" stroke-linejoin="round"/>
    </g>
    <defs>
        <clipPath id="clip0">
            <rect width="246" height="249" fill="white"/>
        </clipPath>
    </defs>
</svg>
